# xmcd
# Copyright (C) 1995-1998 Ti Kan
#
# Track frame offsets:
#       150
#       20097
#       37110
#       56075
#       79400
#       100595
#       122487
#       144692
#       161235
#       176687
#       196635
#
# Disc length: 2849 seconds
#
# Revision: 0
# Processed by: cddbd v1.4b42PL1 Copyright (c) Steve Scherf et al.
# Submitted via: CD-Transfer v1.0
#
DISCID=970b1f0b
DTITLE=Peter Kuhn - Last Taxi To Paris
DYEAR=1994
DGENRE=
TTITLE0=Words Fall From Heaven
TTITLE1=The Real Man For You
TTITLE2=Say You Will
TTITLE3=Hot Desert Winds
TTITLE4=I Can Breath Again
TTITLE5=Uncle Joe
TTITLE6=Frost
TTITLE7=I Loved Another Woman
TTITLE8=Give It Up
TTITLE9=Feel So Good
TTITLE10=The Wind Cries Mary
EXTD=
EXTT0=
EXTT1=
EXTT2=
EXTT3=
EXTT4=
EXTT5=
EXTT6=
EXTT7=
EXTT8=
EXTT9=
EXTT10=
PLAYORDER=
